# xmcd CD database file
#
# Track frame offsets:
#	150
#	17216
#	34767
#	52656
#	67943
#	87198
#	101694
#	115477
#	132126
#	150601
#	168172
#	182030
#	201526
#	220537
#	234686
#	251993
#	264229
#	280805
#	297478
#	313484
#
# Disc length: 4225 seconds
#
# Revision: 0
# Processed by: cddbd v1.5.1PL0 Copyright (c) Steve Scherf et al.
# Submitted via: CDex 1.51
#
DISCID=25107f14
DTITLE=Various Artist - Voices of Nature
DYEAR=1900
DGENRE=New Age
TTITLE0=The Woods
TTITLE1=Foolish Games
TTITLE2=Syo Léh Y Mana
TTITLE3=Initiation to Father Ka
TTITLE4=Forest of Mosakaio
TTITLE5=Indian Moods
TTITLE6=Into the Wetlands
TTITLE7=Nature's Calling
TTITLE8=Pelgrimage to the Woods
TTITLE9=The Sacred Saurian
TTITLE10=Snow over Kilimanjaro
TTITLE11=Voices of Freedom
TTITLE12=Serengeti Awakes
TTITLE13=Olga Mountains
TTITLE14=The Hills of Katmandu
TTITLE15=Drums of Moisi-Kao
TTITLE16=Coming of the Herds
TTITLE17=Amazone
TTITLE18=Spirit of Uyulha-Shoar
TTITLE19=Spirit of Uyulha-Shoar (reprise)
EXTD=
EXTT0=
EXTT1=
EXTT2=
EXTT3=
EXTT4=
EXTT5=
EXTT6=
EXTT7=
EXTT8=
EXTT9=
EXTT10=
EXTT11=
EXTT12=
EXTT13=
EXTT14=
EXTT15=
EXTT16=
EXTT17=
EXTT18=
EXTT19=
PLAYORDER=
